<svg width="100%" height="180" viewBox="0 0 900 180" xmlns="http://www.w3.org/2000/svg" role="img" aria-labelledby="title desc">
  <title id="title">Bruna Kalchner - Desenvolvedora Backend</title>
  <desc id="desc">Cabeçalho em estilo de janela de desenvolvimento, com moldura discreta e pequenos ícones visuais.</desc>

  <rect x="1.5" y="1.5" width="897" height="177" rx="14"
        fill="#0d1117" stroke="#30363d" stroke-width="3"/>

  <line x1="2" y1="42" x2="898" y2="42" stroke="#30363d" stroke-width="2"/>

  <circle cx="24" cy="22" r="5.5" fill="#8b949e"/>
  <circle cx="43" cy="22" r="5.5" fill="#8b949e"/>
  <circle cx="62" cy="22" r="5.5" fill="#8b949e"/>

  <g transform="translate(770 13)" fill="none" stroke="#8b949e" stroke-width="1.7" stroke-linecap="round" stroke-linejoin="round">
    <rect x="0" y="0" width="26" height="17" rx="3"/>
    <line x1="5" y1="5" x2="7" y2="5"/>
    <line x1="11" y1="5" x2="13" y2="5"/>
    <line x1="17" y1="5" x2="19" y2="5"/>
    <line x1="5" y1="10" x2="19" y2="10"/>
  </g>

  <g transform="translate(810 13)" fill="none" stroke="#8b949e" stroke-width="1.7" stroke-linecap="round" stroke-linejoin="round">
    <rect x="0" y="0" width="25" height="17" rx="3"/>
    <path d="M5 5 L9 8.5 L5 12"/>
    <line x1="12" y1="12" x2="18" y2="12"/>
  </g>

  <g transform="translate(850 13)" fill="none" stroke="#8b949e" stroke-width="1.7" stroke-linecap="round" stroke-linejoin="round">
    <rect x="0" y="0" width="22" height="17" rx="3"/>
    <line x1="7" y1="0" x2="7" y2="17"/>
    <line x1="7" y1="6" x2="22" y2="6"/>
  </g>

  <g fill="#8b949e">
    <circle cx="886" cy="17" r="1.8"/>
    <circle cx="886" cy="22" r="1.8"/>
    <circle cx="886" cy="27" r="1.8"/>
  </g>

  <text x="450" y="105"
        text-anchor="middle"
        fill="#f0f6fc"
        font-family="Segoe UI, Arial, sans-serif"
        font-size="44"
        font-weight="700">
    Bruna Kalchner
  </text>

  <text x="450" y="137"
        text-anchor="middle"
        fill="#8b949e"
        font-family="Segoe UI, Arial, sans-serif"
        font-size="20"
        font-weight="600"
        letter-spacing="0.8">
    Desenvolvedora Backend
  </text>
</svg>
